<svg width="1440" height="144" viewBox="0 0 1440 144" fill="none" xmlns="http://www.w3.org/2000/svg">
<rect width="1440" height="144" fill="#2C1E1A"/>
<path d="M152 101.032H158.477V42.9677H152V21.8065H211.455C222.594 21.8065 231.1 24.086 236.972 28.6452C242.844 33.2043 245.781 40.6022 245.781 50.8387C245.781 56.6022 244.615 61.5914 242.283 65.8065C239.952 70.0215 236.627 72.9462 232.309 74.5806L232.439 75.871C240.729 77.1613 244.874 82.2366 244.874 91.0968V101.032H250.962V122.194H209.9V91.871C209.9 88.5161 209.382 85.9785 208.346 84.2581C207.396 82.5376 205.842 81.3763 203.683 80.7742C201.61 80.172 198.631 79.871 194.745 79.871V101.032H203.294V122.194H152V101.032ZM201.74 64.129C204.244 64.129 206.101 63.4839 207.31 62.1935C208.605 60.8172 209.253 58.7097 209.253 55.871V51.2258C209.253 48.3871 208.605 46.3226 207.31 45.0323C206.101 43.6559 204.244 42.9677 201.74 42.9677H194.745V64.129H201.74Z" fill="#3D322E"/>
<path d="M304.303 124C288.501 124 276.281 119.871 267.646 111.613C259.097 103.355 254.822 90.1505 254.822 72C254.822 53.8495 259.097 40.6452 267.646 32.3871C276.281 24.129 288.501 20 304.303 20C320.106 20 332.282 24.129 340.831 32.3871C349.466 40.6452 353.784 53.8495 353.784 72C353.784 90.1505 349.466 103.355 340.831 111.613C332.282 119.871 320.106 124 304.303 124ZM304.303 101.032C307.239 101.032 309.441 100.258 310.909 98.7097C312.377 97.1613 313.111 94.7527 313.111 91.4839V52.5161C313.111 49.2473 312.377 46.8387 310.909 45.2903C309.441 43.7419 307.239 42.9677 304.303 42.9677C301.367 42.9677 299.165 43.7419 297.697 45.2903C296.229 46.8387 295.495 49.2473 295.495 52.5161V91.4839C295.495 94.8387 296.229 97.2903 297.697 98.8387C299.165 100.301 301.367 101.032 304.303 101.032Z" fill="#3D322E"/>
<path d="M408.445 124C392.124 124 379.517 119.871 370.622 111.613C361.814 103.355 357.41 90.1505 357.41 72C357.41 37.3333 374.335 20 408.186 20C416.39 20 423.989 20.9892 430.984 22.9677C438.065 24.9462 443.332 27.1398 446.787 29.5484V61.8065H415.699V52.5161C415.699 49.2473 414.965 46.8387 413.497 45.2903C412.029 43.7419 409.827 42.9677 406.891 42.9677C403.955 42.9677 401.753 43.7419 400.285 45.2903C398.817 46.8387 398.083 49.2473 398.083 52.5161V91.4839C398.083 94.7527 398.817 97.1613 400.285 98.7097C401.753 100.258 403.955 101.032 406.891 101.032C409.827 101.032 412.029 100.258 413.497 98.7097C414.965 97.1613 415.699 94.7527 415.699 91.4839V81.0323H446.787V114.452C443.246 116.86 437.978 119.054 430.984 121.032C424.075 123.011 416.563 124 408.445 124Z" fill="#3D322E"/>
<path d="M548.686 101.032H555.163V122.194H519.801L500.371 82.1936L494.412 87.0968V101.032H500.63V122.194H451.667V101.032H458.144V42.9677H451.667V21.8065H500.63V42.9677H494.412V60L514.49 42.9677H506.329V21.8065H554.515V42.9677H548.038L526.407 60.7742L548.686 101.032Z" fill="#3D322E"/>
<path d="M616.426 21.8065H656.192V42.9677H651.011L626.011 87.6129V101.032H632.488V122.194H583.266V101.032H589.742V87.6129L563.966 42.9677H558.784V21.8065H608.913V42.9677H604.379L612.022 62.9677H613.317L620.959 42.9677H616.426V21.8065Z" fill="#3D322E"/>
<path d="M699.218 101.032H705.695V42.9677H699.218V21.8065H758.673C769.467 21.8065 777.887 24 783.932 28.3871C789.977 32.7742 792.999 39.0538 792.999 47.2258C792.999 52.3011 791.79 56.6022 789.372 60.129C786.954 63.5699 784.104 66.1935 780.823 68C777.628 69.7204 774.519 70.8817 771.497 71.4839V72.7742C777.628 73.3763 783.155 75.3118 788.077 78.5806C792.999 81.8495 795.46 87.6989 795.46 96.129C795.46 105.161 792.049 111.785 785.227 116C778.405 120.129 769.554 122.194 758.673 122.194H699.218V101.032ZM748.958 64.129C751.463 64.129 753.319 63.4839 754.528 62.1935C755.823 60.8172 756.471 58.7097 756.471 55.871V51.2258C756.471 48.3871 755.823 46.3226 754.528 45.0323C753.319 43.6559 751.463 42.9677 748.958 42.9677H741.964V64.129H748.958ZM749.865 101.032C752.369 101.032 754.226 100.387 755.435 99.0968C756.73 97.7204 757.378 95.6129 757.378 92.7742V87.0968C757.378 84.2581 756.73 82.1935 755.435 80.9032C754.226 79.5269 752.369 78.8387 749.865 78.8387H741.964V101.032H749.865Z" fill="#3D322E"/>
<path d="M894.731 101.032H899.913V122.194H849.136V101.032H856.908L854.836 90.7097H837.22L835.147 101.032H842.919V122.194H798.619V101.032H803.801L825.691 21.8065H872.841L894.731 101.032ZM840.069 77.0323H851.986L846.675 51.3548H845.38L840.069 77.0323Z" fill="#3D322E"/>
<path d="M904.014 122.194V101.032H910.491V42.9677H904.014V21.8065H958.676V42.9677H946.759V101.032H958.417V89.1613H984.194V122.194H904.014Z" fill="#3D322E"/>
<path d="M988.639 101.032H995.116V42.9677H988.639V21.8065H1048.09C1058.89 21.8065 1067.31 24 1073.35 28.3871C1079.4 32.7742 1082.42 39.0538 1082.42 47.2258C1082.42 52.3011 1081.21 56.6022 1078.79 60.129C1076.38 63.5699 1073.53 66.1935 1070.24 68C1067.05 69.7204 1063.94 70.8817 1060.92 71.4839V72.7742C1067.05 73.3763 1072.58 75.3118 1077.5 78.5806C1082.42 81.8495 1084.88 87.6989 1084.88 96.129C1084.88 105.161 1081.47 111.785 1074.65 116C1067.83 120.129 1058.97 122.194 1048.09 122.194H988.639V101.032ZM1038.38 64.129C1040.88 64.129 1042.74 63.4839 1043.95 62.1935C1045.24 60.8172 1045.89 58.7097 1045.89 55.871V51.2258C1045.89 48.3871 1045.24 46.3226 1043.95 45.0323C1042.74 43.6559 1040.88 42.9677 1038.38 42.9677H1031.38V64.129H1038.38ZM1039.29 101.032C1041.79 101.032 1043.65 100.387 1044.86 99.0968C1046.15 97.7204 1046.8 95.6129 1046.8 92.7742V87.0968C1046.8 84.2581 1046.15 82.1935 1044.86 80.9032C1043.65 79.5269 1041.79 78.8387 1039.29 78.8387H1031.38V101.032H1039.29Z" fill="#3D322E"/>
<path d="M1137.78 124C1121.98 124 1109.76 119.871 1101.12 111.613C1092.57 103.355 1088.3 90.1505 1088.3 72C1088.3 53.8495 1092.57 40.6452 1101.12 32.3871C1109.76 24.129 1121.98 20 1137.78 20C1153.58 20 1165.76 24.129 1174.31 32.3871C1182.94 40.6452 1187.26 53.8495 1187.26 72C1187.26 90.1505 1182.94 103.355 1174.31 111.613C1165.76 119.871 1153.58 124 1137.78 124ZM1137.78 101.032C1140.72 101.032 1142.92 100.258 1144.39 98.7097C1145.85 97.1613 1146.59 94.7527 1146.59 91.4839V52.5161C1146.59 49.2473 1145.85 46.8387 1144.39 45.2903C1142.92 43.7419 1140.72 42.9677 1137.78 42.9677C1134.84 42.9677 1132.64 43.7419 1131.17 45.2903C1129.71 46.8387 1128.97 49.2473 1128.97 52.5161V91.4839C1128.97 94.8387 1129.71 97.2903 1131.17 98.8387C1132.64 100.301 1134.84 101.032 1137.78 101.032Z" fill="#3D322E"/>
<path d="M1282.82 101.032H1288V122.194H1237.22V101.032H1245L1242.92 90.7097H1225.31L1223.23 101.032H1231.01V122.194H1186.71V101.032H1191.89L1213.78 21.8065H1260.93L1282.82 101.032ZM1228.16 77.0323H1240.07L1234.76 51.3548H1233.47L1228.16 77.0323Z" fill="#3D322E"/>
</svg>
