<svg width="115" height="40" fill="none" xmlns="http://www.w3.org/2000/svg"><path d="M0 39.7v-3.525h1.074v-9.669H0v-3.524h12.85v5.566H9.046v-2.042H7.091v3.567h3.244v2.45H7.091v3.652h2.815V39.7H0ZM13.576 39.7v-3.525h1.075v-9.669h-1.075v-3.524h14.505v6.49h-4.814v-2.966h-2.6v3.395h1.891v2.45h-1.89v3.825h2.6V32.78h4.813v6.918H13.575ZM35.556 40c-1.375 0-2.679-.114-3.91-.344-1.219-.243-2.157-.515-2.816-.816v-4.255h4.727c0 .444.1.767.301.967.2.2.566.301 1.096.301.444 0 .76-.064.946-.193.2-.143.3-.351.3-.623a.732.732 0 0 0-.279-.58c-.186-.172-.508-.344-.967-.516l-1.848-.645c-1.59-.602-2.736-1.31-3.438-2.127-.687-.817-1.031-1.92-1.031-3.31 0-1.69.551-2.972 1.654-3.845 1.118-.889 2.973-1.333 5.566-1.333 1.246 0 2.413.13 3.502.387 1.103.244 1.991.573 2.664.989v3.846h-4.297c0-.716-.444-1.075-1.332-1.075-.43 0-.738.058-.924.172-.172.1-.258.287-.258.559 0 .244.1.437.3.58.216.143.56.294 1.032.451l1.87.645c1.518.516 2.621 1.189 3.309 2.02.702.816 1.053 1.89 1.053 3.223 0 1.82-.616 3.194-1.848 4.126-1.218.93-3.009 1.396-5.372 1.396ZM59.403 28.182h-3.696v-1.676h-1.375v9.67h1.504v3.523h-9.024v-3.523h1.504v-9.67H46.94v1.676h-3.695v-5.2h16.158v5.2ZM60.14 39.7v-3.525h1.074v-9.669h-1.075v-3.524h8.166v3.524H67.23v9.67h1.075v3.523h-8.166ZM78.187 22.982h7.177v3.524h-.86L80.659 39.7h-6.962L69.85 26.506h-.86v-3.524h8.252v3.524h-1.118l1.483 7.198h.215l1.483-7.198h-1.118v-3.524ZM99.245 36.175h.86V39.7h-8.423v-3.523h1.289l-.344-1.72h-2.922l-.344 1.72h1.29v3.523H83.3v-3.523h.86l3.632-13.194h7.82l3.632 13.194Zm-9.067-3.996h1.976l-.88-4.276h-.215l-.881 4.276ZM100.785 39.7v-3.525h1.075v-9.669h-1.075v-3.524h9.068v3.524h-1.977v9.67h1.934v-1.977h4.276v5.5h-13.301ZM0 14.882h1.247V4.218H0V.332h11.452c2.079 0 3.7.403 4.865 1.208 1.164.806 1.746 1.96 1.746 3.46 0 .932-.233 1.722-.698 2.37-.466.632-1.015 1.114-1.647 1.445a6.673 6.673 0 0 1-1.796.64v.237c1.18.11 2.245.466 3.193 1.066.948.6 1.422 1.675 1.422 3.223 0 1.66-.657 2.876-1.97 3.65-1.315.758-3.02 1.137-5.115 1.137H0v-3.886Zm9.58-6.778c.483 0 .84-.118 1.073-.355.25-.253.374-.64.374-1.161v-.853c0-.522-.124-.9-.374-1.138-.233-.253-.59-.379-1.073-.379H8.233v3.886H9.58Zm.175 6.778c.482 0 .84-.119 1.073-.356.25-.252.374-.64.374-1.16v-1.043c0-.522-.125-.901-.374-1.138-.233-.253-.59-.38-1.073-.38H8.233v4.077h1.522ZM37.658 14.882h.998v3.886h-9.78v-3.886h1.497l-.4-1.896h-3.392l-.4 1.896h1.497v3.886h-8.532v-3.886h.998L24.36.332h9.081l4.217 14.55Zm-10.529-4.408h2.296l-1.023-4.716h-.25l-1.023 4.716ZM39.446 18.768v-3.886h1.247V4.218h-1.247V.332h10.528v3.886H47.68v10.664h2.245v-2.18h4.965v6.066H39.446ZM55.746 14.882h1.247V4.218h-1.247V.332h11.451c2.08 0 3.701.403 4.865 1.208C73.227 2.346 73.81 3.5 73.81 5c0 .932-.233 1.722-.699 2.37-.466.632-1.014 1.114-1.646 1.445a6.672 6.672 0 0 1-1.797.64v.237c1.181.11 2.246.466 3.194 1.066.948.6 1.422 1.675 1.422 3.223 0 1.66-.657 2.876-1.971 3.65-1.314.758-3.019 1.137-5.115 1.137H55.746v-3.886Zm9.58-6.778c.482 0 .84-.118 1.073-.355.25-.253.374-.64.374-1.161v-.853c0-.522-.125-.9-.374-1.138-.233-.253-.59-.379-1.073-.379H63.98v3.886h1.347Zm.175 6.778c.482 0 .84-.119 1.073-.356.25-.252.374-.64.374-1.16v-1.043c0-.522-.125-.901-.374-1.138-.233-.253-.59-.38-1.073-.38h-1.522v4.077H65.5ZM84.472 19.1c-3.044 0-5.397-.758-7.06-2.275-1.647-1.517-2.47-3.942-2.47-7.275s.823-5.758 2.47-7.275C79.073.758 81.427 0 84.471 0c3.044 0 5.389.758 7.035 2.275 1.664 1.517 2.495 3.942 2.495 7.275s-.831 5.758-2.495 7.275c-1.646 1.517-3.991 2.275-7.035 2.275Zm0-4.218c.565 0 .99-.142 1.272-.427.283-.284.424-.726.424-1.327V5.972c0-.6-.141-1.043-.424-1.327-.282-.285-.707-.427-1.272-.427-.566 0-.99.142-1.273.427-.282.284-.424.726-.424 1.327v7.156c0 .616.142 1.067.424 1.351.283.269.707.403 1.273.403ZM112.408 14.882h.998v3.886h-9.78v-3.886h1.497l-.4-1.896h-3.393l-.399 1.896h1.497v3.886h-8.532v-3.886h.998L99.11.332h9.081l4.217 14.55Zm-10.529-4.408h2.296l-1.023-4.716h-.25l-1.023 4.716Z" fill="#231814"/></svg>