<svg width="19" height="16" fill="none" xmlns="http://www.w3.org/2000/svg"><path fill-rule="evenodd" clip-rule="evenodd" d="M1.427 12.352V10.55c1.225-.296 2.132-1.34 2.129-2.63a2.475 2.475 0 0 0-.88-1.787 2.842 2.842 0 0 0-1.249-.621V3.648c.001-1.283 1.13-2.327 2.516-2.327h11.119c1.386.001 2.512 1.047 2.51 2.33v1.802c-1.224.294-2.13 1.325-2.13 2.549 0 1.223.907 2.255 2.13 2.548v1.804c0 1.282-1.129 2.325-2.514 2.325H3.94c-.67 0-1.302-.242-1.777-.682a2.227 2.227 0 0 1-.736-1.645ZM3.941 16h11.117c2.172 0 3.941-1.636 3.942-3.648V9.974c0-.365-.32-.66-.714-.66-.78 0-1.417-.59-1.418-1.313 0-.722.637-1.31 1.418-1.31.394 0 .714-.297.714-.661V3.653C19.002 1.64 17.236 0 15.057 0H3.943C1.77 0 .001 1.636 0 3.649v2.457a.64.64 0 0 0 .218.476.762.762 0 0 0 .52.185c.364-.019.703.106.964.333.263.227.415.534.429.902 0 .722-.633 1.31-1.417 1.311-.394 0-.714.296-.714.66v2.379c0 .974.41 1.89 1.153 2.58A4.08 4.08 0 0 0 3.941 16Zm6.074-11.61a.533.533 0 0 0-1.026 0l-.457 1.464a.543.543 0 0 1-.513.389H6.543c-.523 0-.74.698-.317 1.018l1.194.905c.189.144.268.398.196.63L7.16 10.26c-.162.52.407.95.83.63l1.195-.905a.522.522 0 0 1 .634 0l1.194.905c.424.32.993-.11.831-.63l-.456-1.464a.577.577 0 0 1 .196-.63l1.194-.905c.423-.32.206-1.018-.317-1.018h-1.476a.543.543 0 0 1-.513-.39l-.457-1.464Z" fill="#231814"/></svg>