<svg width="521" height="194" viewBox="0 0 521 194" fill="none" xmlns="http://www.w3.org/2000/svg">
<path fill-rule="evenodd" clip-rule="evenodd" d="M154.158 106H175.355C183.428 103.952 190.133 100.331 195.465 95.1365C204.359 86.5608 208.807 72.8486 208.807 54C208.807 35.1514 204.359 21.4392 195.465 12.8635C186.66 4.28784 174.119 0 157.844 0C141.568 0 128.984 4.28784 120.09 12.8635C111.285 21.4392 106.883 35.1514 106.883 54C106.883 72.8486 111.285 86.5608 120.09 95.1365C125.137 100.002 131.369 103.488 138.793 105.593H112.484L93.1875 175.447H88.6191V194H127.67V175.447H120.818L122.645 166.346H138.174L140 175.447H133.15V194H177.908V175.447H173.342L154.158 106ZM157.844 84.1489C160.867 84.1489 163.137 83.345 164.648 81.7371C166.16 80.1289 166.916 77.6279 166.916 74.2334V33.7666C166.916 30.3721 166.16 27.8711 164.648 26.2629C163.137 24.655 160.867 23.8511 157.844 23.8511C154.82 23.8511 152.553 24.655 151.041 26.2629C149.529 27.8711 148.771 30.3721 148.771 33.7666V74.2334C148.771 77.717 149.529 80.2629 151.041 81.8711C152.553 83.3896 154.82 84.1489 157.844 84.1489ZM1 106H0.982422V84.1489H7.65234V23.8511H0.982422V1.87598H62.2168C73.6895 1.87598 82.4512 4.24316 88.498 8.97754C94.5449 13.7122 97.5703 21.3945 97.5703 32.0249C97.5703 38.01 96.3691 43.1909 93.9668 47.5684C91.5664 51.9453 88.1426 54.9827 83.6953 56.6799L83.8281 58.0198C92.3672 59.3599 96.6367 64.6304 96.6367 73.8313V84.1489H102.906V106H60.6152V74.6353C60.6152 71.1514 60.082 68.5161 59.0156 66.7295C58.0371 64.9429 56.4355 63.7371 54.2129 63.1116C52.0781 62.4863 49.0098 62.1738 45.0078 62.1738V84.1489H53.8125V105.594C63.1348 105.648 70.4219 107.582 75.6738 111.395C81.002 115.263 83.666 120.8 83.666 128.005C83.666 132.48 82.5996 136.273 80.4688 139.382C78.3379 142.416 75.8262 144.729 72.9336 146.322C70.1172 147.839 67.377 148.863 64.7129 149.394V150.532C70.1172 151.062 74.9883 152.769 79.3262 155.651C83.666 158.533 85.8359 163.691 85.8359 171.124C85.8359 179.088 82.8281 184.928 76.8145 188.645C71.6367 191.779 65.1328 193.565 57.3008 194H1V175.447H6.70898V124.251H1V106ZM52.2109 45.8262C54.791 45.8262 56.7031 45.1562 57.9473 43.8164C59.2812 42.3872 59.9492 40.1985 59.9492 37.2505V32.4268C59.9492 29.479 59.2812 27.335 57.9473 25.9951C56.7031 24.5657 54.791 23.8511 52.2109 23.8511H45.0078V45.8262H52.2109ZM256.119 106H247.002C238.648 103.952 231.697 100.331 226.148 95.1365C217.076 86.5608 212.541 72.8486 212.541 54C212.541 18 229.973 0 264.836 0C273.285 0 281.111 1.02734 288.316 3.08203C295.609 5.13647 301.035 7.41431 304.592 9.91553V43.4143H272.574V33.7666C272.574 30.3721 271.818 27.8711 270.307 26.2629C268.793 24.655 266.525 23.8511 263.502 23.8511C260.479 23.8511 258.211 24.655 256.699 26.2629C255.186 27.8711 254.43 30.3721 254.43 33.7666V74.2334C254.43 77.6279 255.186 80.1289 256.699 81.7371C258.211 83.345 260.479 84.1489 263.502 84.1489C266.525 84.1489 268.793 83.345 270.307 81.7371C271.818 80.1289 272.574 77.6279 272.574 74.2334V63.3796H304.592V98.0845C300.945 100.586 295.52 102.864 288.316 104.918C287.49 105.157 286.654 105.382 285.811 105.593H308.527C308.895 105.593 309.258 105.595 309.619 105.601V84.1489H316.289V23.8511H309.619V1.87598H360.047V23.8511H353.643V41.5386L374.322 23.8511H365.916V1.87598H415.545V23.8511H408.875L386.596 42.3423L409.541 84.1489H416.211V106H403.711C410.115 107.782 415.471 110.756 419.783 114.922C427.395 122.203 431.201 133.845 431.201 149.849C431.201 165.853 427.395 177.495 419.783 184.776C415.219 189.187 409.48 192.261 402.57 194H372.58C365.652 192.261 359.883 189.187 355.271 184.776C347.736 177.495 343.967 165.853 343.967 149.849C343.967 133.845 347.736 122.203 355.271 114.922C361.242 109.211 369.154 105.74 379.012 104.508L359.779 64.5857L353.643 69.6775V84.1489H360.047V106H315.648C321.828 106.753 326.877 108.552 330.793 111.395C336.121 115.263 338.785 120.8 338.785 128.005C338.785 132.48 337.719 136.273 335.588 139.382C333.457 142.416 330.945 144.729 328.053 146.322C325.236 147.839 322.496 148.863 319.832 149.394V150.532C325.236 151.062 330.107 152.769 334.447 155.651C338.785 158.533 340.955 163.691 340.955 171.124C340.955 179.088 337.947 184.928 331.934 188.645C326.756 191.779 320.252 193.565 312.42 194H256.119V175.447H261.828V124.251H256.119V106ZM454.463 106H445.156V84.1489H451.826V70.2134L425.277 23.8511H419.941V1.87598H471.57V23.8511H466.9L474.771 44.6204H476.105L483.977 23.8511H479.309V1.87598H520.264V23.8511H514.928L489.18 70.2134V84.1489H495.852V105.593H496.137L515.434 175.447H520V194H475.242V175.447H482.092L480.266 166.346H464.738L462.91 175.447H469.762V194H430.711V175.447H435.279L454.463 106ZM387.584 175.447C390.172 175.447 392.113 174.765 393.408 173.399C394.701 172.034 395.348 169.91 395.348 167.028V132.67C395.348 129.788 394.701 127.664 393.408 126.299C392.113 124.934 390.172 124.251 387.584 124.251C384.996 124.251 383.055 124.934 381.762 126.299C380.467 127.664 379.82 129.788 379.82 132.67V167.028C379.82 169.986 380.467 172.148 381.762 173.513C383.055 174.802 384.996 175.447 387.584 175.447ZM49.7539 141.203C48.6895 142.34 47.0527 142.909 44.8457 142.909H38.6797V124.251H44.8457C47.0527 124.251 48.6895 124.858 49.7539 126.071C50.8965 127.209 51.4668 129.029 51.4668 131.532V135.628C51.4668 138.131 50.8965 139.989 49.7539 141.203ZM50.5547 173.741C49.4883 174.878 47.8516 175.447 45.6445 175.447H38.6797V155.879H45.6445C47.8516 155.879 49.4883 156.486 50.5547 157.699C51.6953 158.837 52.2656 160.657 52.2656 163.16V168.166C52.2656 170.669 51.6953 172.527 50.5547 173.741ZM125.158 154.286H135.662L130.98 131.646H129.838L125.158 154.286ZM252.201 194H181.523V175.447H187.232V124.251H181.523V105.593H229.707V124.251H219.203V175.447H229.479V164.98H252.201V194ZM299.965 142.909C302.172 142.909 303.809 142.34 304.873 141.203C306.016 139.989 306.586 138.131 306.586 135.628V131.532C306.586 129.029 306.016 127.209 304.873 126.071C303.809 124.858 302.172 124.251 299.965 124.251H293.799V142.909H299.965ZM300.764 175.447C302.971 175.447 304.607 174.878 305.674 173.741C306.814 172.527 307.387 170.669 307.387 168.166V163.16C307.387 160.657 306.814 158.837 305.674 157.699C304.607 156.486 302.971 155.879 300.764 155.879H293.799V175.447H300.764ZM467.25 154.286H477.754L473.072 131.646H471.93L467.25 154.286Z" fill="#1A1310"/>
</svg>
