<svg width="1170" height="106" viewBox="0 0 1170 106" fill="none" xmlns="http://www.w3.org/2000/svg">
<path fill-rule="evenodd" clip-rule="evenodd" d="M52.8295 106H0V84.1489H6.67039V23.8511H0V1.87592H61.2342C72.7073 1.87592 81.4678 4.24316 87.5156 8.97766C93.5634 13.7122 96.5873 21.3945 96.5873 32.0248C96.5873 38.0099 95.3867 43.191 92.9853 47.5682C90.584 51.9454 87.1599 54.9826 82.7129 56.6799L82.8463 58.0198C91.3844 59.3598 95.6535 64.6302 95.6535 73.8312V84.1489H101.924V106H59.6333V74.6353C59.6333 71.1514 59.0997 68.5161 58.0325 66.7296C57.0541 64.9429 55.4532 63.737 53.2298 63.1116C51.0952 62.4863 48.0269 62.1737 44.0246 62.1737V84.1489H52.8295V106ZM51.2287 45.8263C53.8079 45.8263 55.72 45.1563 56.9652 43.8163C58.2993 42.3871 58.9663 40.1985 58.9663 37.2506V32.4268C58.9663 29.4789 58.2993 27.335 56.9652 25.9951C55.72 24.5657 53.8079 23.8511 51.2287 23.8511H44.0246V45.8263H51.2287Z" fill="#1A1310"/>
<path fill-rule="evenodd" clip-rule="evenodd" d="M174.372 106H139.33C131.235 103.952 124.494 100.331 119.107 95.1365C110.302 86.5608 105.9 72.8486 105.9 54C105.9 35.1514 110.302 21.4392 119.107 12.8635C128.001 4.28784 140.586 0 156.862 0C173.137 0 185.678 4.28784 194.483 12.8635C203.377 21.4392 207.824 35.1514 207.824 54C207.824 72.8486 203.377 86.5608 194.483 95.1365C189.15 100.331 182.446 103.952 174.372 106ZM156.862 84.1489C159.886 84.1489 162.154 83.3449 163.665 81.737C165.177 80.129 165.933 77.6278 165.933 74.2333V33.7667C165.933 30.3722 165.177 27.871 163.665 26.263C162.154 24.6551 159.886 23.8511 156.862 23.8511C153.838 23.8511 151.57 24.6551 150.058 26.263C148.546 27.871 147.79 30.3722 147.79 33.7667V74.2333C147.79 77.7171 148.546 80.263 150.058 81.871C151.57 83.3896 153.838 84.1489 156.862 84.1489Z" fill="#1A1310"/>
<path d="M283.113 106H246.02C237.666 103.952 230.714 100.331 225.165 95.1365C216.094 86.5608 211.558 72.8486 211.558 54C211.558 18 228.99 0 263.854 0C272.303 0 280.13 1.02728 287.334 3.08191C294.627 5.13647 300.052 7.41437 303.609 9.91565V43.4144H271.591V33.7667C271.591 30.3722 270.835 27.871 269.323 26.263C267.812 24.6551 265.544 23.8511 262.52 23.8511C259.496 23.8511 257.228 24.6551 255.716 26.263C254.204 27.871 253.448 30.3722 253.448 33.7667V74.2333C253.448 77.6278 254.204 80.129 255.716 81.737C257.228 83.3449 259.496 84.1489 262.52 84.1489C265.544 84.1489 267.812 83.3449 269.323 81.737C270.835 80.129 271.591 77.6278 271.591 74.2333V63.3796H303.609V98.0844C299.963 100.586 294.538 102.864 287.334 104.918C285.95 105.318 284.543 105.678 283.113 106Z" fill="#1A1310"/>
<path d="M359.064 106H308.636V84.1489H315.306V23.8511H308.636V1.87592H359.064V23.8511H352.661V41.5385L373.339 23.8511H364.934V1.87592H414.562V23.8511H407.892L385.612 42.3424L408.559 84.1489H415.229V106H378.749L358.797 64.5856L352.661 69.6774V84.1489H359.064V106Z" fill="#1A1310"/>
<path d="M494.868 106H444.173V84.1489H450.844V70.2134L424.296 23.8511H418.959V1.87592H470.588V23.8511H465.919L473.79 44.6204H475.124L482.995 23.8511H478.326V1.87592H519.282V23.8511H513.946L488.198 70.2134V84.1489H494.868V106Z" fill="#1A1310"/>
<path fill-rule="evenodd" clip-rule="evenodd" d="M629.379 106H563.596V84.1489H570.267V23.8511H563.596V1.87592H624.831C635.948 1.87592 644.619 4.15387 650.845 8.70966C657.071 13.2655 660.184 19.7866 660.184 28.2729C660.184 33.5435 658.939 38.0099 656.448 41.6725C653.958 45.2457 651.023 47.9702 647.643 49.8461C644.353 51.6328 641.151 52.8387 638.038 53.4641V54.804C644.353 55.4293 650.045 57.4392 655.114 60.8337C660.184 64.2283 662.718 70.3027 662.718 79.0571C662.718 88.4367 659.205 95.3151 652.179 99.6923C646.129 103.385 638.529 105.487 629.379 106ZM614.825 45.8263C617.404 45.8263 619.316 45.1563 620.562 43.8163C621.896 42.3871 622.563 40.1985 622.563 37.2506V32.4268C622.563 29.4789 621.896 27.335 620.562 25.9951C619.316 24.5657 617.404 23.8511 614.825 23.8511H607.621V45.8263H614.825ZM615.759 84.1489C618.338 84.1489 620.25 83.4789 621.495 82.139C622.829 80.7097 623.497 78.5211 623.497 75.5732V69.6774C623.497 66.7296 622.829 64.5856 621.495 63.2457C620.25 61.8163 618.338 61.1017 615.759 61.1017H607.621V84.1489H615.759Z" fill="#1A1310"/>
<path fill-rule="evenodd" clip-rule="evenodd" d="M711.598 106H665.972V84.1489H671.309L693.855 1.87592H742.415L764.961 84.1489H770.297V106H718.001V84.1489H726.006L723.871 73.4293H705.728L703.593 84.1489H711.598V106ZM720.936 59.2258H708.663L714.133 32.5608H715.467L720.936 59.2258Z" fill="#1A1310"/>
<path d="M857.101 106H774.522V84.1489H781.192V23.8511H774.522V1.87592H830.82V23.8511H818.546V84.1489H830.553V71.8214H857.101V106Z" fill="#1A1310"/>
<path fill-rule="evenodd" clip-rule="evenodd" d="M927.463 106H861.68V84.1489H868.35V23.8511H861.68V1.87592H922.914C934.031 1.87592 942.703 4.15387 948.928 8.70966C955.154 13.2655 958.267 19.7866 958.267 28.2729C958.267 33.5435 957.022 38.0099 954.532 41.6725C952.041 45.2457 949.106 47.9702 945.727 49.8461C942.436 51.6328 939.234 52.8387 936.121 53.4641V54.804C942.436 55.4293 948.128 57.4392 953.198 60.8337C958.267 64.2283 960.802 70.3027 960.802 79.0571C960.802 88.4367 957.289 95.3151 950.263 99.6923C944.212 103.385 936.612 105.487 927.463 106ZM918.645 43.8163C917.4 45.1563 915.488 45.8263 912.908 45.8263H905.704V23.8511H912.908C915.488 23.8511 917.4 24.5657 918.645 25.9951C919.979 27.335 920.646 29.4789 920.646 32.4268V37.2506C920.646 40.1985 919.979 42.3871 918.645 43.8163ZM919.579 82.139C918.334 83.4789 916.422 84.1489 913.842 84.1489H905.704V61.1017H913.842C916.422 61.1017 918.334 61.8163 919.579 63.2457C920.913 64.5856 921.58 66.7296 921.58 69.6774V75.5732C921.58 78.5211 920.913 80.7097 919.579 82.139Z" fill="#1A1310"/>
<path fill-rule="evenodd" clip-rule="evenodd" d="M1032.8 106H997.753C989.658 103.952 982.917 100.331 977.53 95.1365C968.725 86.5608 964.323 72.8486 964.323 54C964.323 35.1514 968.725 21.4392 977.53 12.8635C986.424 4.28784 999.009 0 1015.28 0C1031.56 0 1044.1 4.28784 1052.91 12.8635C1061.8 21.4392 1066.25 35.1514 1066.25 54C1066.25 72.8486 1061.8 86.5608 1052.91 95.1365C1047.57 100.331 1040.87 103.952 1032.8 106ZM1015.28 84.1489C1018.31 84.1489 1020.58 83.3449 1022.09 81.737C1023.6 80.129 1024.36 77.6278 1024.36 74.2333V33.7667C1024.36 30.3722 1023.6 27.871 1022.09 26.263C1020.58 24.6551 1018.31 23.8511 1015.28 23.8511C1012.26 23.8511 1009.99 24.6551 1008.48 26.263C1006.97 27.871 1006.21 30.3722 1006.21 33.7667V74.2333C1006.21 77.7171 1006.97 80.263 1008.48 81.871C1009.99 83.3896 1012.26 84.1489 1015.28 84.1489Z" fill="#1A1310"/>
<path fill-rule="evenodd" clip-rule="evenodd" d="M1111.3 106H1065.68V84.1489H1071.01L1093.56 1.87592H1142.12L1164.66 84.1489H1170V106H1117.7V84.1489H1125.71L1123.57 73.4293H1105.43L1103.3 84.1489H1111.3V106ZM1120.64 59.2258H1108.37L1113.84 32.5608H1115.17L1120.64 59.2258Z" fill="#1A1310"/>
</svg>
